<svg width="1000" height="250" viewBox="0 0 1000 250" fill="none" xmlns="http://www.w3.org/2000/svg">
  <defs>
    <style>
      @import url('https://fonts.googleapis.com/css2?family=Cinzel:wght@600&amp;display=swap');
      .got-text { font-family: 'Cinzel', 'Trajan Pro', 'Palatino Linotype', 'Times New Roman', serif; font-weight: 600; text-anchor: middle; }
    </style>
    
    <!-- Authentic GoT Metallic Silver Gradient with sudden dark midpoint reflection -->
    <linearGradient id="silver" x1="0%" y1="0%" x2="0%" y2="100%">
      <stop offset="0%" stop-color="#fdfdfd" />
      <stop offset="25%" stop-color="#cbd5e1" />
      <stop offset="47%" stop-color="#64748b" />
      <stop offset="50%" stop-color="#020617" /> <!-- Sharp dark reflection line -->
      <stop offset="53%" stop-color="#475569" />
      <stop offset="80%" stop-color="#94a3b8" />
      <stop offset="100%" stop-color="#ffffff" />
    </linearGradient>

    <!-- Animated Shine Layer -->
    <linearGradient id="shine" x1="0%" y1="0%" x2="200%" y2="0%">
      <stop offset="0%" stop-color="transparent" />
      <stop offset="48%" stop-color="transparent" />
      <stop offset="50%" stop-color="#ffffff" stop-opacity="0.8" />
      <stop offset="52%" stop-color="transparent" />
      <stop offset="100%" stop-color="transparent" />
      <animate attributeName="x1" dur="10s" from="-100%" to="200%" repeatCount="indefinite" />
      <animate attributeName="x2" dur="10s" from="100%" to="400%" repeatCount="indefinite" />
    </linearGradient>

    <filter id="shadow" x="-20%" y="-20%" width="140%" height="140%">
      <!-- Large diffuse shadow -->
      <feDropShadow dx="0" dy="8" stdDeviation="6" flood-color="#000000" flood-opacity="0.9" />
      <!-- Tight dark shadow to increase readability -->
      <feDropShadow dx="0" dy="2" stdDeviation="2" flood-color="#000000" flood-opacity="1" />
    </filter>
    
    <g id="logo-shapes" class="got-text">
      <!-- Majestic Dragon Emblem (Merged with the forged text) -->
      <g transform="translate(340, -15) scale(0.5) rotate(-5)">
        <path d="M18.32 255.78L192 223.96l-91.28 68.69c-10.08 10.08-2.94 27.31 11.31 27.31h222.7c-9.44-26.4-14.73-54.47-14.73-83.38v-42.27l-119.73-87.6c-23.82-15.88-55.29-14.01-77.06 4.59L5.81 227.64c-12.38 10.33-3.45 30.42 12.51 28.14zm556.87 34.1l-100.66-50.31A47.992 47.992 0 0 1 448 196.65v-36.69h64l28.09 22.63c6 6 14.14 9.37 22.63 9.37h30.97a32 32 0 0 0 28.62-17.69l14.31-28.62a32.005 32.005 0 0 0-3.02-33.51l-74.53-99.38C553.02 4.7 543.54 0 533.47 0H296.02c-7.13 0-10.7 8.57-5.66 13.61L352 63.96 292.42 88.8c-5.9 2.95-5.9 11.36 0 14.31L352 127.96v108.62c0 72.08 36.03 139.39 96 179.38-195.59 6.81-344.56 41.01-434.1 60.91C5.78 478.67 0 485.88 0 494.2 0 504 7.95 512 17.76 512h499.08c63.29.01 119.61-47.56 122.99-110.76 2.52-47.28-22.73-90.4-64.64-111.36zM489.18 66.25l45.65 11.41c-2.75 10.91-12.47 18.89-24.13 18.26-12.96-.71-25.85-12.53-21.52-29.67z" />
      </g>

      <!-- MAIN LINE: SANTHOSH  -->
      <text x="250" y="110" font-size="96">S</text>
      <text x="320" y="110" font-size="72">A</text>
      <text x="380" y="110" font-size="72">N</text>
      
      <text x="460" y="110" font-size="96">T</text>
      
      <text x="530" y="110" font-size="72">H</text>
      <text x="600" y="110" font-size="72">O</text>
      <text x="670" y="110" font-size="72">S</text>
      <text x="750" y="110" font-size="96">H</text>

      <!-- SUB LINE: REDDY -->
      <text x="360" y="200" font-size="84">R</text>
      <text x="430" y="200" font-size="72">E</text>
      <text x="500" y="200" font-size="72">D</text>
      <text x="570" y="200" font-size="72">D</text>
      <text x="640" y="200" font-size="84">Y</text>

      <!-- Extended T-Bar Left (Over A N) -->
      <rect x="320" y="42" width="140" height="3" />
      <polygon points="317,42 320,42 320,58 319,58" />

      <!-- Extended T-Bar Right (Over H O S H) -->
      <rect x="460" y="42" width="310" height="3" />
      <polygon points="768,42 771,42 769,58 768,58" />

      <!-- Iconic O-Lines -->
      <rect x="598" y="60" width="4" height="50" />
      <rect x="585" y="62" width="1.5" height="46" />
      <rect x="613.5" y="62" width="1.5" height="46" />
    </g>
  </defs>

  <rect width="1000" height="250" fill="transparent" />

  <g filter="url(#shadow)">
    <!-- Base heavy stroke layer for 3D depth -->
    <use href="#logo-shapes" fill="url(#silver)" stroke="#020617" stroke-width="2.5" />
    <!-- Thin bright stroke layer for the metallic bevel effect -->
    <use href="#logo-shapes" fill="url(#silver)" stroke="#ffffff" stroke-width="0.5" />
    <!-- Animated Light Sheen -->
    <use href="#logo-shapes" fill="url(#shine)" />
  </g>
</svg>
